#######################################################################
Information:
#######################################################################
Title: 2012
Year: 2009
Runtime: mins
Votes: 7,246
Rating: 6.7
Country: USA, Canada
All Genres: Action, Drama, Sci-Fi, Thriller
Plot Outline:

An epic adventure about a global cataclysm that brings an end to the world and tells of the heroic struggle of the survivors.
Director: Roland Emmerich
Writing By: Roland Emmerich Harald Kloser
Produced By: Aaron Boyd Roland Emmerich Ute Emmerich Volker Engel Larry J. Franco Mark Gordon Harald Kloser Marc Weigert Michael Wimer Kirstin Winkler
Music: Harald Kloser Thomas Wanker

#######################################################################
Cast:
#######################################################################
• John Cusack as Jackson Curtis
• Amanda Peet as Kate Curtis
• Chiwetel Ejiofor as Adrian Helmsley
• Thandie Newton as Laura Wilson
• Oliver Platt as Carl Anheuser
• Thomas McCarthy as Gordon Silberman (as Tom McCarthy)
• Woody Harrelson as Charlie Frost
• Danny Glover as President Thomas Wilson
• Liam James as Noah Curtis
• Morgan Lily as Lilly Curtis
Description	An epic adventure about a global cataclysm that brings an end to the world and tells of the heroic struggle of the survivors.

Ripper ...........: IMAGiNE                                        IMDB Rating.......:6.7/10                         
Video Codec.......: XVID                                      Release Date......:15/11/09
Audio Codec.......:AC3                                        Theatre Date......:13/11/09
Audio Bitrate.....:128                                              Runtime.......:2h 22mn
Subtitles.........:NIL                                              Language..........:ENGLISH
Resolution...... 704 x 304                                      IMDb URL..........:http://www.imdb.com/title/tt1190080/







Video
ID                            : 0
Format                        : MPEG-4 Visual
Format profile                : AdvancedSimple@L5
Format settings, BVOP            : Yes
Format settings, QPel            : No
Format settings, GMC          : No warppoints
Format settings, Matrix          : Custom
Codec ID                      : XVID
Codec ID/Hint                    : XviD
Duration                      : 2h 28mn
Bit rate                      : 1 692 Kbps
Width                            : 704 pixels
Height                        : 304 pixels
Display aspect ratio          : 2.35:1
Frame rate                    : 25.000 fps
Resolution                    : 24 bits
Colorimetry                      : 4:2:0
Scan type                        : Progressive
Bits/(Pixel*Frame)            : 0.316
Stream size                      : 1.75 GiB (88%)
Writing library                  : XviD 1.2.1 (UTC 2008-12-04)

Audio
ID                            : 1
Format                        : AC-3
Format/Info                      : Audio Coding 3
Codec ID                      : 2000
Duration                      : 2h 28mn
Bit rate mode                    : Constant
Bit rate                      : 224 Kbps
Channel(s)                    : 2 channels
Channel positions                : L R
Sampling rate                    : 48.0 KHz
Stream size                      : 238 MiB (12%)
Alignment                        : Split accross interleaves
Interleave, duration          : 96 ms (2.40 video frames)
Interleave, preload duration  : 96 ms